<svg width="30" height="30" fill="none" xmlns="http://www.w3.org/2000/svg"><path d="M11.836 21.023a.494.494 0 0 1-.32-.118L8.31 18.176a.495.495 0 0 1 0-.754l3.205-2.729a.495.495 0 1 1 .642.754l-2.762 2.352 2.762 2.352a.495.495 0 0 1-.322.872Zm6.327 0a.495.495 0 0 1-.321-.872l2.762-2.352-2.762-2.352a.495.495 0 1 1 .642-.754l3.205 2.729a.495.495 0 0 1 0 .754l-3.205 2.73a.493.493 0 0 1-.32.117Zm-4.298 2.047a.495.495 0 0 1-.485-.598l1.997-9.483a.495.495 0 0 1 .97.205l-1.998 9.483a.496.496 0 0 1-.484.394Z" fill="#4985FF"/><path d="M26.674 28.237H3.325A3.33 3.33 0 0 1 0 24.912V5.095a3.33 3.33 0 0 1 3.325-3.326h23.35A3.33 3.33 0 0 1 30 5.095v19.817a3.33 3.33 0 0 1-3.326 3.325ZM3.325 2.76A2.338 2.338 0 0 0 .991 5.095v19.817a2.338 2.338 0 0 0 2.334 2.335h23.35a2.338 2.338 0 0 0 2.334-2.335V5.095a2.338 2.338 0 0 0-2.335-2.335H3.325Z" fill="#4985FF"/><path d="M29.505 9.7H.495a.495.495 0 1 1 0-.991h29.01a.495.495 0 0 1 0 .99ZM8.462 7.33a1.57 1.57 0 0 1-1.567-1.568 1.57 1.57 0 0 1 1.567-1.567 1.57 1.57 0 0 1 1.567 1.567A1.57 1.57 0 0 1 8.462 7.33Zm0-2.145a.578.578 0 1 0 .001 1.156.578.578 0 0 0-.001-1.156ZM3.647 7.314A1.57 1.57 0 0 1 2.08 5.747 1.57 1.57 0 0 1 3.647 4.18a1.57 1.57 0 0 1 1.568 1.567 1.57 1.57 0 0 1-1.568 1.567Zm0-2.144a.578.578 0 1 0 .002 1.156.578.578 0 0 0-.002-1.156Zm9.631 2.174a1.57 1.57 0 0 1-1.567-1.567 1.57 1.57 0 0 1 1.567-1.567 1.57 1.57 0 0 1 1.567 1.567 1.57 1.57 0 0 1-1.567 1.567Zm0-2.144a.577.577 0 1 0 .002 1.155.577.577 0 0 0-.002-1.155Z" fill="#4985FF"/></svg>