<svg width="110" height="110" fill="none" xmlns="http://www.w3.org/2000/svg"><circle cx="55" cy="55" r="54.5" stroke="#E0E0E0"/><circle cx="55" cy="55" r="44.5" stroke="#4985FF"/><g clip-path="url(#a)" fill="#4985FF"><path d="M74.333 35h-30a.667.667 0 0 0-.667.667v10h1.333v-9.334h28.667V73a.656.656 0 0 1-.614.667c-.057 0-.115-.005-.172-.006-.118-.004-.236-.006-.352-.018-.01 0-.02 0-.03-.004a4.673 4.673 0 0 1-4.137-4.134c0-.01-.003-.02-.004-.028a4.685 4.685 0 0 1-.024-.477v-1.333a.667.667 0 0 0-.667-.667H44.999V55h-1.333v12h-5.333a.667.667 0 0 0-.667.667V69a6.007 6.007 0 0 0 6 6h29.4a1.985 1.985 0 0 0 1.933-2V35.667a.667.667 0 0 0-.666-.667ZM43.666 73.667A4.672 4.672 0 0 1 38.999 69v-.667h28V69c.001.22.014.44.038.658.006.058.018.114.026.171.022.162.048.322.084.48.012.056.027.11.041.166a6.003 6.003 0 0 0 .393 1.094c.016.032.03.066.046.096.084.17.176.333.276.493l.038.067c.109.17.226.335.352.493l.021.029a5.879 5.879 0 0 0 .913.922l-25.561-.002Z"/><path d="M57 53.667c.177 0 .346-.07.471-.196l2.667-2.666a.667.667 0 0 0 0-.943l-2.667-2.667A.667.667 0 0 0 57 47H38.333a3.333 3.333 0 0 0 0 6.667H57Zm-.172-5.23 1.896 1.896-1.896 1.896-.474-1.896.474-1.896Zm-16.495-.104H55.48l-.333 1.334h-13.48V51h13.48l.333 1.333H40.333v-4Zm-4 2a2 2 0 0 1 2-2H39v4h-.667a2 2 0 0 1-2-2Zm14 13.334h20a.667.667 0 0 0 .666-.667V43a.667.667 0 0 0-1.138-.471l-20 20a.667.667 0 0 0 .472 1.138Zm19.333-19.058v1.724h-1.334v1.334h1.334V49h-1.334v1.333h1.334v1.334h-1.334V53h1.334v1.333h-1.334v1.334h1.334V57h-1.334v1.333h1.334v1.334h-1.334V61h1.334v1.333h-1.334V61H67v1.333h-1.333V61h-1.334v1.333H63V61h-1.333v1.333h-1.333V61H59v1.333h-1.333V61h-1.333v1.333H55V61h-1.333v1.333h-1.724L69.666 44.61Z"/><path d="M59.99 59.667h6.344a.667.667 0 0 0 .667-.667v-6.343a.667.667 0 0 0-1.138-.472l-6.344 6.344a.667.667 0 0 0 .472 1.138Zm5.677-5.4v4.066h-4.066l4.066-4.066Zm0-15.267H52.334v1.333h13.333V39Zm2 2.666H50.334V43h17.333v-1.334Zm-17.333 14h-4V57h4v-1.334ZM49 58.334h-2.666v1.333h2.667v-1.334Z"/></g><defs><clipPath id="a"><path fill="#fff" transform="translate(35 35)" d="M0 0h40v40H0z"/></clipPath></defs></svg>